<svg width="20" height="20" viewBox="0 0 20 20" fill="none" xmlns="http://www.w3.org/2000/svg">
<rect width="20" height="20" rx="10" fill="#272643"/>
<path d="M15.2264 9.36371C15.6958 9.36138 16.0793 9.73778 16.0857 10.2071V10.2071C16.0922 10.6822 15.7101 11.0715 15.2349 11.0739L4.8991 11.1253C4.42972 11.1276 4.0462 10.7512 4.03979 10.2818V10.2818C4.03331 9.80669 4.41543 9.4174 4.8906 9.41504L15.2264 9.36371Z" fill="white"/>
<path d="M9.13453 5.16391C9.12795 4.68371 9.51413 4.29023 9.99437 4.28782V4.28782C10.4688 4.28544 10.8564 4.66588 10.8629 5.14023L11.0026 15.3294C11.0091 15.8097 10.6229 16.2032 10.1426 16.2056V16.2056C9.66824 16.2079 9.28062 15.8275 9.27412 15.3531L9.13453 5.16391Z" fill="white"/>
</svg>
