<svg width="60" height="48" viewBox="0 0 60 48" fill="none" xmlns="http://www.w3.org/2000/svg">
<path d="M30.5985 7.62336C20.9818 8.72196 16.1071 1.1413 9.61723 0.922109C3.25733 0.71896 -0.42122 6.30289 1.83577 15.3056C4.40307 25.5379 -0.418568 30.7396 0.0296484 39.0714C0.217952 42.5757 3.68699 47.5582 7.98615 47.0904C13.6379 46.4542 15.9135 39.9053 20.9128 35.404C25.3923 31.357 33.1923 28.5477 37.8867 25.594C42.4908 22.6992 47.9251 20.5928 48.3548 14.3674C48.6412 10.2376 45.0183 5.97678 30.5985 7.62336Z" fill="#BAE8E8"/>
<path d="M12.5003 33.8179C12.7168 33.8179 12.9333 33.7353 13.0985 33.5702L14.3772 32.2914C14.7076 31.961 14.7076 31.4254 14.3772 31.095C14.0468 30.7646 13.5111 30.7646 13.1808 31.095L11.9021 32.3738C11.5717 32.7042 11.5717 33.2398 11.9021 33.5702C12.0674 33.7353 12.2838 33.8179 12.5003 33.8179Z" fill="CurrentColor"/>
<path d="M48.4474 33.57C48.6126 33.7351 48.8292 33.8177 49.0456 33.8177C49.2621 33.8177 49.4787 33.7351 49.6438 33.57C49.9742 33.2396 49.9742 32.7039 49.6438 32.3736L48.3651 31.0947C48.0347 30.7643 47.499 30.7643 47.1687 31.0947C46.8383 31.4251 46.8383 31.9608 47.1687 32.2911L48.4474 33.57Z" fill="CurrentColor"/>
<path d="M56.6473 24.8974C51.8689 22.6784 44.6813 22.4661 43.23 22.4461L36.3759 18.0844C34.3505 16.7955 32.0112 16.1143 29.6106 16.1143H21.5543C19.4686 16.1143 17.3801 16.6073 15.5145 17.5401L11.2232 19.6857C9.93032 20.3322 8.54747 20.7508 7.11307 20.9302L3.76868 21.3482C2.44302 21.5138 1.44336 22.6462 1.44336 23.9822V29.3819C1.44336 30.9624 2.50472 32.3695 4.02441 32.8037L8.02113 33.9456C8.70765 36.1192 10.7426 37.6996 13.1402 37.6996C15.1345 37.6996 16.8769 36.6055 17.8022 34.9868H43.7438C44.6692 36.6055 46.4115 37.6996 48.4058 37.6996C51.3653 37.6996 53.773 35.2918 53.773 32.3323C53.773 29.3728 51.3653 26.965 48.4058 26.965C45.4463 26.965 43.0385 29.3727 43.0385 32.3323C43.0385 32.661 43.0697 32.9823 43.1266 33.2947H18.4193C18.4762 32.9822 18.5074 32.6609 18.5074 32.3323C18.5074 29.3728 16.0996 26.965 13.1401 26.965C10.2531 26.965 7.8922 29.2567 7.77838 32.1164L4.48916 31.1766C3.6922 30.949 3.13541 30.211 3.13541 29.3819V26.8487H4.09784C4.56507 26.8487 4.94386 26.4699 4.94386 26.0027C4.94386 25.5355 4.56507 25.1567 4.09784 25.1567H3.13541V23.9822C3.13541 23.4978 3.49784 23.0872 3.9785 23.0272L7.32288 22.6091C8.94815 22.406 10.5149 21.9315 11.9798 21.1991L12.3657 21.0062L13.9307 22.5639C14.9444 23.5776 16.2923 24.136 17.7259 24.136H19.4701C19.9373 24.136 20.3161 23.7572 20.3161 23.29C20.3161 22.8228 19.9373 22.444 19.4701 22.444H17.7259C17.578 22.444 17.4318 22.4343 17.2872 22.4171L18.222 18.2881C19.3029 17.9709 20.4291 17.8062 21.5545 17.8062H25.8581V22.4439H23.0872C22.62 22.4439 22.2412 22.8227 22.2412 23.2899C22.2412 23.7571 22.62 24.1359 23.0872 24.1359H42.9804C43.0606 24.1359 51.0533 24.165 55.9347 26.4319C56.2211 26.5649 56.4763 26.7471 56.6943 26.965H55.6399C55.1727 26.965 54.7939 27.3438 54.7939 27.811C54.7939 28.2783 55.1727 28.6571 55.6399 28.6571H57.4913C57.5004 28.7487 57.5066 28.8407 57.5066 28.9341V31.936C57.5066 32.7741 57.1377 33.2947 56.5442 33.2947C56.0769 33.2947 55.6981 33.6735 55.6981 34.1408C55.6981 34.608 56.0769 34.9868 56.5442 34.9868C57.2934 34.9868 57.9742 34.6785 58.4613 34.1186C58.9436 33.564 59.1986 32.8093 59.1986 31.936V28.9341C59.1985 27.2017 58.1971 25.6171 56.6473 24.8974ZM48.4058 28.6572C50.4323 28.6572 52.081 30.3059 52.081 32.3324C52.081 34.3589 50.4323 36.0076 48.4058 36.0076C46.3793 36.0076 44.7305 34.3589 44.7305 32.3324C44.7305 30.3059 46.3793 28.6572 48.4058 28.6572ZM13.1402 28.6572C15.1668 28.6572 16.8155 30.3059 16.8155 32.3324C16.8155 34.3589 15.1668 36.0076 13.1402 36.0076C11.1137 36.0076 9.46501 34.3589 9.46501 32.3324C9.46501 30.3059 11.1139 28.6572 13.1402 28.6572ZM15.6858 21.8271C15.4871 21.6939 15.3 21.5404 15.127 21.3675L13.9657 20.2062L16.2712 19.0535C16.287 19.0456 16.3031 19.0382 16.3189 19.0304L15.6858 21.8271ZM27.5501 17.8062H29.6106C31.6888 17.8062 33.7141 18.396 35.4675 19.5118L40.0751 22.444H27.5501V17.8062Z" fill="CurrentColor"/>
<path d="M21.2786 29.6777C20.8114 29.6777 20.4326 30.0565 20.4326 30.5238C20.4326 30.991 20.8114 31.3698 21.2786 31.3698H40.2677C40.7349 31.3698 41.1137 30.991 41.1137 30.5238C41.1137 30.0565 40.7349 29.6777 40.2677 29.6777H21.2786Z" fill="CurrentColor"/>
</svg>
