<svg width="71" height="71" viewBox="0 0 71 71" fill="none" xmlns="http://www.w3.org/2000/svg">
<g clip-path="url(#clip0_880_13371)">
<mask id="mask0_880_13371" style="mask-type:luminance" maskUnits="userSpaceOnUse" x="0" y="0" width="72" height="71">
<path d="M18.7779 0.00388695L0.0078125 51.5742L52.6682 70.741L71.4383 19.1707L18.7779 0.00388695Z" fill="white"/>
</mask>
<g mask="url(#mask0_880_13371)">
<path d="M26.4377 56.6311C27.8377 57.2411 29.2977 57.7211 30.8277 58.0511L32.2177 63.1211C33.3677 63.2711 34.5377 63.3411 35.7377 63.3411C36.9377 63.3411 38.1077 63.2711 39.2577 63.1211L40.6477 58.0511C42.1677 57.7211 43.6377 57.2411 45.0277 56.6311L49.1277 59.9111C51.1977 58.7711 53.1077 57.3711 54.8177 55.7611L52.9677 50.8511C53.9877 49.7011 54.8977 48.4511 55.6777 47.1211L60.9277 47.3711C61.9177 45.2711 62.6577 43.0311 63.0877 40.6911L58.6977 37.8011C58.7677 37.0411 58.8077 36.2711 58.8177 35.4911C58.8177 34.7111 58.7777 33.9511 58.6977 33.1911L63.0877 30.3011C62.6477 27.9511 61.9177 25.7111 60.9277 23.6211L49.7877 30.9211C50.2577 32.3611 50.5077 33.9011 50.5077 35.4911C50.5077 43.6611 43.8877 50.2811 35.7177 50.2811C27.5477 50.2811 20.9277 43.6611 20.9277 35.4911C20.9277 33.9011 21.1877 32.3611 21.6477 30.9211L10.5177 23.6211C9.52766 25.7211 8.78766 27.9611 8.34766 30.3011L12.7477 33.1911C12.6777 33.9511 12.6277 34.7211 12.6277 35.4911C12.6277 36.2611 12.6677 37.0411 12.7477 37.8011L8.34766 40.6911C8.78766 43.0311 9.52766 45.2811 10.5177 47.3711L15.7677 47.1211C16.5477 48.4611 17.4577 49.7011 18.4777 50.8511L16.6177 55.7711C18.3277 57.3811 20.2377 58.7711 22.3077 59.9111L26.4077 56.6311" fill="#050A30"/>
</g>
<mask id="mask1_880_13371" style="mask-type:luminance" maskUnits="userSpaceOnUse" x="0" y="0" width="72" height="71">
<path d="M18.7779 0.00388695L0.0078125 51.5742L52.6682 70.741L71.4383 19.1707L18.7779 0.00388695Z" fill="white"/>
</mask>
<g mask="url(#mask1_880_13371)">
<path d="M35.7402 20.6894C40.4802 20.6894 44.6902 22.9194 47.4002 26.3794L54.8002 22.4394C54.2402 21.6294 53.6302 20.8494 52.9802 20.1194L54.8302 15.1994C53.1202 13.5894 51.2102 12.1994 49.1402 11.0594L45.0402 14.3394C43.6502 13.7294 42.1802 13.2494 40.6602 12.9094L39.2702 7.83938C38.1202 7.68938 36.9402 7.60938 35.7502 7.60938C34.5602 7.60938 33.3802 7.68938 32.2302 7.83938L30.8402 12.9094C29.3102 13.2394 27.8502 13.7194 26.4502 14.3394L22.3502 11.0594C20.2802 12.1994 18.3702 13.5994 16.6602 15.1994L18.5202 20.1194C17.8602 20.8594 17.2602 21.6294 16.7002 22.4394L24.0902 26.3794C26.8002 22.9194 31.0202 20.6894 35.7502 20.6894" fill="#12229D"/>
</g>
<mask id="mask2_880_13371" style="mask-type:luminance" maskUnits="userSpaceOnUse" x="0" y="0" width="72" height="71">
<path d="M18.7779 0.00388695L0.0078125 51.5742L52.6682 70.741L71.4383 19.1707L18.7779 0.00388695Z" fill="white"/>
</mask>
<g mask="url(#mask2_880_13371)">
<path d="M35.7391 48.7394L60.9491 23.6094L35.7391 36.3594L10.5391 23.6094L35.7391 48.7394Z" fill="#12229D"/>
</g>
</g>
<defs>
<clipPath id="clip0_880_13371">
<rect width="71" height="71" fill="white"/>
</clipPath>
</defs>
</svg>
