<?xml version="1.0" encoding="UTF-8"?>
<svg id="Layer_2" data-name="Layer 2" xmlns="http://www.w3.org/2000/svg" xmlns:xlink="http://www.w3.org/1999/xlink" viewBox="0 0 400 70.74">
  <defs>
    <style>
      .cls-1 {
        clip-path: url(#clippath-2);
      }

      .cls-2 {
        fill: none;
      }

      .cls-2, .cls-3, .cls-4 {
        stroke-width: 0px;
      }

      .cls-5 {
        clip-path: url(#clippath-1);
      }

      .cls-3 {
        fill: #12229d;
      }

      .cls-6 {
        clip-path: url(#clippath);
      }

      .cls-4 {
        fill: #050a30;
      }
    </style>
    <clipPath id="clippath">
      <rect class="cls-2" x="8.28" y="7.35" width="54.88" height="56.04" transform="translate(-9.73 56.84) rotate(-70)"/>
    </clipPath>
    <clipPath id="clippath-1">
      <rect class="cls-2" x="8.28" y="7.35" width="54.88" height="56.04" transform="translate(-9.73 56.84) rotate(-70)"/>
    </clipPath>
    <clipPath id="clippath-2">
      <rect class="cls-2" x="8.28" y="7.35" width="54.88" height="56.04" transform="translate(-9.73 56.84) rotate(-70)"/>
    </clipPath>
  </defs>
  <g id="Layer_1-2" data-name="Layer 1">
    <g>
      <g>
        <path class="cls-3" d="m74.53,56.79h8.05v-18.71h6.1c9.2,0,15.93-4.63,15.93-13.06s-6.74-13.34-15.93-13.34h-14.15v45.11Zm8.05-26.28v-11.27h6.1c5.49,0,7.89,2.11,7.89,5.78s-2.33,5.49-7.89,5.49h-6.1Z"/>
        <path class="cls-3" d="m119.33,57.43c3.8,0,7.19-1.21,9.93-5.21l.51,4.57h6.42v-19.34c0-7.79-5.11-13.22-13.79-13.22-6.29,0-10.34,2.81-13.41,6.99l5.97,4.31c1.37-2.34,3.83-4.51,7.5-4.51,4.12,0,6.29,2.68,6.29,6.74h-8.3c-7.15,0-12.7,2.3-12.7,9.23s5.04,10.44,11.59,10.44Zm1.12-6.57c-3.03,0-4.73-1.5-4.73-3.61s1.63-3.86,5.18-3.86h7.85c-.13,3.99-3.86,7.47-8.3,7.47Z"/>
      </g>
      <g>
        <path class="cls-3" d="m144.49,56.79h7.53v-13.47c0-8.11,3.8-11.49,7.44-11.49,1.25,0,2.43.38,3.48,1.08l3.54-6.39c-1.53-1.56-3.73-2.3-5.84-2.3-3.58,0-7.19,2.17-8.56,6.03v-5.36h-7.6v31.9Z"/>
        <path class="cls-3" d="m181.84,57.43c2.2,0,4.57-.51,5.75-.95v-7.06c-1.05.51-2.81,1.15-4.44,1.15-2.04,0-3.61-.89-3.61-3.96v-15.2h8.05v-6.51h-8.05v-13.47l-7.6,5.55v7.92h-5.27v6.51h5.14v16.57c0,5.81,3.74,9.45,10.03,9.45Z"/>
        <path class="cls-3" d="m204.19,57.43c6.04,0,12.45-3.25,12.45-10.63,0-11.72-16.22-8.84-16.22-13.66,0-1.5,1.56-2.75,4.12-2.75,3.45,0,5.24,2.08,6.32,4.06l6.03-3.29c-2.43-4.31-6.61-6.93-12.1-6.93-6.16,0-11.85,3.19-11.85,9.93,0,11.27,16.03,7.66,16.03,13.03,0,1.69-1.56,3.8-5.18,3.8-4.24,0-5.94-2.94-6.8-5.24l-6.19,2.74c1.56,4.92,6.67,8.94,13.37,8.94Z"/>
      </g>
      <g>
        <path class="cls-3" d="m224.78,56.79h7.79V23.04l11.18,29.82h7.85l11.18-29.82v33.75h7.79V11.68h-10.92l-11.97,32.09-11.97-32.09h-10.92v45.11Z"/>
        <path class="cls-3" d="m289.72,57.43c3.8,0,7.19-1.21,9.93-5.21l.51,4.57h6.42v-19.34c0-7.79-5.11-13.22-13.79-13.22-6.29,0-10.34,2.81-13.41,6.99l5.97,4.31c1.37-2.34,3.83-4.51,7.5-4.51,4.12,0,6.29,2.68,6.29,6.74h-8.3c-7.15,0-12.7,2.3-12.7,9.23s5.04,10.44,11.59,10.44Zm1.12-6.57c-3.03,0-4.73-1.5-4.73-3.61s1.63-3.86,5.18-3.86h7.85c-.13,3.99-3.86,7.47-8.3,7.47Z"/>
      </g>
      <path class="cls-3" d="m326.22,57.43c2.2,0,4.57-.51,5.75-.95v-7.06c-1.05.51-2.81,1.15-4.44,1.15-2.04,0-3.61-.89-3.61-3.96v-15.2h8.05v-6.51h-8.05v-13.47l-7.6,5.55v7.92h-5.27v6.51h5.14v16.57c0,5.81,3.74,9.45,10.03,9.45Z"/>
      <g>
        <path class="cls-3" d="m351.6,57.43c6.32,0,11.31-3.51,13.41-9.45l-7.08-2.68c-.83,3-3.26,5.08-6.39,5.08-5.43,0-7.47-4.63-7.47-9.48s2.11-9.61,7.47-9.61c3.19,0,5.55,2.17,6.39,5.24l7.41-2.87c-2.43-6.36-7.47-9.42-13.79-9.42-10.41,0-15.39,8.3-15.39,16.67s5.05,16.54,15.45,16.54Z"/>
        <path class="cls-3" d="m371.08,56.79h7.92v-16.15c0-5.3,2.36-9.36,7.34-9.36,4.69,0,5.75,3.42,5.75,7.35v18.17h7.92v-19.16c0-6.67-3.42-13.41-11.78-13.41-3.13,0-6.67,1.25-9.23,4.37V11.68h-7.92v45.11Z"/>
      </g>
      <rect class="cls-2" x="7.3" y="22.9" width="56.05" height="40.48"/>
      <g>
        <rect class="cls-2" x="8.28" y="7.35" width="54.88" height="56.04" transform="translate(-9.73 56.84) rotate(-70)"/>
        <g class="cls-6">
          <path class="cls-4" d="m26.44,56.63c1.4.61,2.86,1.09,4.39,1.42l1.39,5.07c1.15.15,2.32.22,3.52.22s2.37-.07,3.52-.22l1.39-5.07c1.52-.33,2.99-.81,4.38-1.42l4.1,3.28c2.07-1.14,3.98-2.54,5.69-4.15l-1.85-4.91c1.02-1.15,1.93-2.4,2.71-3.73l5.25.25c.99-2.1,1.73-4.34,2.16-6.68l-4.39-2.89c.07-.76.11-1.53.12-2.31,0-.78-.04-1.54-.12-2.3l4.39-2.89c-.44-2.35-1.17-4.59-2.16-6.68l-11.14,7.3c.47,1.44.72,2.98.72,4.57,0,8.17-6.62,14.79-14.79,14.79s-14.79-6.62-14.79-14.79c0-1.59.26-3.13.72-4.57l-11.13-7.3c-.99,2.1-1.73,4.34-2.17,6.68l4.4,2.89c-.07.76-.12,1.53-.12,2.3s.04,1.55.12,2.31l-4.4,2.89c.44,2.34,1.18,4.59,2.17,6.68l5.25-.25c.78,1.34,1.69,2.58,2.71,3.73l-1.86,4.92c1.71,1.61,3.62,3,5.69,4.14l4.1-3.28"/>
        </g>
      </g>
      <rect class="cls-2" x="16.64" y="7.33" width="38.92" height="20.24"/>
      <g>
        <rect class="cls-2" x="8.28" y="7.35" width="54.88" height="56.04" transform="translate(-9.73 56.84) rotate(-70)"/>
        <g class="cls-5">
          <path class="cls-3" d="m35.74,20.69c4.74,0,8.95,2.23,11.66,5.69l7.4-3.94c-.56-.81-1.17-1.59-1.82-2.32l1.85-4.92c-1.71-1.61-3.62-3-5.69-4.14l-4.1,3.28c-1.39-.61-2.86-1.09-4.38-1.43l-1.39-5.07c-1.15-.15-2.33-.23-3.52-.23s-2.37.08-3.52.23l-1.39,5.07c-1.53.33-2.99.81-4.39,1.43l-4.1-3.28c-2.07,1.14-3.98,2.54-5.69,4.14l1.86,4.92c-.66.74-1.26,1.51-1.82,2.32l7.39,3.94c2.71-3.46,6.93-5.69,11.66-5.69"/>
        </g>
      </g>
      <rect class="cls-2" x="10.41" y="22.9" width="51.38" height="26.47"/>
      <g>
        <rect class="cls-2" x="8.28" y="7.35" width="54.88" height="56.04" transform="translate(-9.73 56.84) rotate(-70)"/>
        <g class="cls-1">
          <path class="cls-3" d="m35.74,48.74l25.21-25.13-25.21,12.75-25.2-12.75,25.2,25.13"/>
        </g>
      </g>
    </g>
  </g>
</svg>