<svg width="590" height="391" viewBox="0 0 590 391" fill="none" xmlns="http://www.w3.org/2000/svg">
<g clip-path="url(#clip0_834_13358)">
<path d="M116.884 70.2614L4.67969 145.316L115.195 310.533L227.4 235.478L116.884 70.2614Z" fill="#F5F5F5"/>
<path d="M169.419 227.656L168.145 235.537L112.367 227.502L113.64 219.621L169.419 227.656Z" fill="#E0E0E0"/>
<path d="M141.328 199.543L149.332 200.697L140.458 255.614L132.453 254.462L141.328 199.543Z" fill="#E0E0E0"/>
<path d="M89.9539 129.744C90.0339 129.864 78.7889 137.525 64.8419 146.854C50.8899 156.186 39.5179 163.652 39.4379 163.532C39.3579 163.413 50.5999 155.753 64.5529 146.421C78.4999 137.092 89.8739 129.625 89.9539 129.744Z" fill="#E0E0E0"/>
<path d="M131.219 119.388C131.299 119.508 112.599 132.155 89.4595 147.632C66.3105 163.115 47.4865 175.566 47.4065 175.446C47.3265 175.327 66.0215 162.682 89.1695 147.199C112.31 131.722 131.139 119.269 131.219 119.388Z" fill="#E0E0E0"/>
<path d="M139.492 131.751C139.572 131.871 120.873 144.518 97.7329 159.995C74.5839 175.478 55.7599 187.929 55.6799 187.809C55.5999 187.689 74.2949 175.045 97.4429 159.562C120.584 144.085 139.412 131.632 139.492 131.751Z" fill="#E0E0E0"/>
<path d="M147.758 144.118C147.838 144.238 129.139 156.885 105.999 172.362C82.8496 187.845 64.0256 200.296 63.9456 200.176C63.8656 200.057 82.5606 187.412 105.709 171.929C128.85 156.451 147.678 143.998 147.758 144.118Z" fill="#E0E0E0"/>
<path d="M156.031 156.485C156.111 156.605 137.412 169.251 114.272 184.729C91.123 200.212 72.299 212.663 72.219 212.543C72.139 212.423 90.834 199.779 113.982 184.296C137.122 168.819 155.951 156.366 156.031 156.485Z" fill="#E0E0E0"/>
<path d="M492.084 180.975L397.852 244.008L490.666 382.762L584.898 319.729L492.084 180.975Z" fill="#F5F5F5"/>
<path d="M536.203 313.183L535.134 319.801L488.289 313.052L489.359 306.434L536.203 313.183Z" fill="#E0E0E0"/>
<path d="M512.609 289.57L519.331 290.539L511.878 336.66L505.156 335.692L512.609 289.57Z" fill="#E0E0E0"/>
<path d="M469.465 230.947C469.545 231.067 460.112 237.516 448.398 245.351C436.68 253.188 427.12 259.443 427.04 259.323C426.96 259.203 436.391 252.755 448.109 244.918C459.822 237.084 469.385 230.828 469.465 230.947Z" fill="#E0E0E0"/>
<path d="M504.122 222.251C504.202 222.371 488.509 233.007 469.075 246.006C449.634 259.009 433.815 269.45 433.735 269.33C433.655 269.21 449.345 258.576 468.786 245.573C488.219 232.575 504.042 222.132 504.122 222.251Z" fill="#E0E0E0"/>
<path d="M511.067 232.634C511.147 232.754 495.454 243.391 476.02 256.389C456.579 269.392 440.76 279.833 440.68 279.713C440.6 279.593 456.29 268.959 475.731 255.956C495.164 242.957 510.987 232.514 511.067 232.634Z" fill="#E0E0E0"/>
<path d="M518.012 243.021C518.092 243.141 502.399 253.777 482.965 266.776C463.524 279.779 447.705 290.22 447.625 290.1C447.545 289.981 463.235 279.346 482.676 266.343C502.109 253.345 517.932 242.902 518.012 243.021Z" fill="#E0E0E0"/>
<path d="M524.958 253.407C525.038 253.527 509.345 264.163 489.911 277.162C470.47 290.165 454.651 300.606 454.571 300.486C454.491 300.367 470.181 289.732 489.622 276.729C509.055 263.731 524.878 253.287 524.958 253.407Z" fill="#E0E0E0"/>
<path d="M342.99 76.3284L240.172 21.3398L159.203 172.735L262.021 227.724L342.99 76.3284Z" fill="#F5F5F5"/>
<path d="M244.417 180.368L237.894 182.602L221.336 136.828L227.86 134.594L244.417 180.368Z" fill="#E0E0E0"/>
<path d="M254.42 147.527L256.797 154.096L211.337 169.665L208.961 163.096L254.42 147.527Z" fill="#E0E0E0"/>
<path d="M286.72 79.9944C286.639 80.1454 276.211 74.7244 263.43 67.8894C250.645 61.0514 240.349 55.3884 240.43 55.2374C240.511 55.0874 250.937 60.5064 263.722 67.3434C276.503 74.1794 286.801 79.8444 286.72 79.9944Z" fill="#E0E0E0"/>
<path d="M311.394 107.228C311.313 107.379 294.054 98.3052 272.85 86.9652C251.638 75.6202 234.513 66.3052 234.594 66.1542C234.675 66.0042 251.93 75.0752 273.142 86.4202C294.346 97.7602 311.475 107.077 311.394 107.228Z" fill="#E0E0E0"/>
<path d="M305.339 118.557C305.258 118.708 287.999 109.634 266.795 98.2933C245.583 86.9483 228.458 77.6333 228.539 77.4823C228.62 77.3323 245.875 86.4033 267.087 97.7483C288.291 109.088 305.419 118.406 305.339 118.557Z" fill="#E0E0E0"/>
<path d="M299.277 129.889C299.196 130.04 281.937 120.966 260.733 109.625C239.521 98.2814 222.396 88.9654 222.477 88.8144C222.557 88.6634 239.813 97.7353 261.025 109.08C282.229 120.421 299.358 129.739 299.277 129.889Z" fill="#E0E0E0"/>
<path d="M293.214 141.221C293.133 141.372 275.875 132.298 254.67 120.957C233.458 109.613 216.333 100.297 216.414 100.146C216.495 99.9964 233.75 109.067 254.962 120.412C276.166 131.753 293.294 141.071 293.214 141.221Z" fill="#E0E0E0"/>
<path d="M560.669 387.826C560.669 387.97 431.418 388.086 272.016 388.086C112.559 388.086 -16.6641 387.969 -16.6641 387.826C-16.6641 387.682 112.559 387.566 272.016 387.566C431.418 387.566 560.669 387.683 560.669 387.826Z" fill="#263238"/>
<path d="M467.358 53.4744C464.418 54.1514 462.986 57.5344 462.707 60.5394C462.428 63.5434 462.811 66.7164 461.55 69.4574C460.13 72.5424 456.738 74.8164 456.625 78.2114C456.556 80.2804 457.785 82.2264 457.726 84.2964C457.629 87.6954 454.163 90.2644 453.981 93.6604C453.85 96.1054 455.478 98.4524 455.087 100.869C454.782 102.75 453.318 104.232 452.699 106.034C451.465 109.627 453.933 113.582 457.148 115.604C460.731 117.858 465.319 118.439 469.35 117.151C473.382 115.863 476.783 112.728 478.395 108.815C480.174 104.496 479.785 99.6334 479.399 94.9794C478.194 80.4734 477.298 65.9424 476.713 51.3984" fill="#263238"/>
<path d="M458.824 104.665C458.761 104.608 459.628 104.35 460.168 103.067C460.429 102.44 460.563 101.596 460.51 100.626C460.476 99.6496 460.143 98.5866 459.781 97.3876C459.446 96.1996 459.009 94.8206 459.259 93.2876C459.511 91.7306 460.625 90.4516 461.642 89.1956C462.154 88.5586 462.668 87.8966 462.992 87.1436C463.334 86.3986 463.406 85.5456 463.148 84.7456C462.632 83.1116 461.031 81.9096 460.296 80.0236C459.932 79.0786 459.928 78.0406 460.135 77.1056C460.333 76.1616 460.715 75.3046 461.1 74.4886C461.883 72.8606 462.745 71.3676 463.087 69.7826C463.789 66.6106 463.461 63.5826 463.939 61.0956C464.372 58.6036 465.425 56.7306 466.468 55.7676C466.976 55.2696 467.468 55.0046 467.789 54.8256C468.131 54.6786 468.311 54.6106 468.318 54.6276C468.352 54.6836 467.577 54.9216 466.611 55.9106C465.647 56.8856 464.68 58.7176 464.302 61.1566C464.103 62.3696 464.074 63.7336 464.024 65.1976C463.972 66.6606 463.926 68.2496 463.554 69.8916C463.207 71.5556 462.321 73.1076 461.561 74.7066C460.809 76.2776 460.118 78.1196 460.783 79.8416C461.418 81.5436 463.029 82.7526 463.634 84.5916C463.93 85.5066 463.833 86.5206 463.447 87.3406C463.08 88.1746 462.535 88.8566 462.013 89.4966C460.968 90.7606 459.922 91.9626 459.683 93.3626C459.433 94.7546 459.819 96.0976 460.134 97.2866C460.469 98.4756 460.792 99.5956 460.8 100.613C460.827 101.621 460.657 102.499 460.353 103.148C460.051 103.801 459.638 104.205 459.328 104.41C459.021 104.621 458.824 104.665 458.824 104.665Z" fill="#455A64"/>
<path d="M450.947 128.367L441.92 154.389L404.277 156.407L398 170.375L437.3 174.351C445.137 177.591 454.091 173.62 456.951 165.637L467.439 136.362L450.947 128.367Z" fill="#B78876"/>
<path d="M528.812 373.697C528.812 373.697 501.226 286.08 500.641 283.235C500.112 280.664 510.652 217.611 511.98 201.293L474.706 202.683C474.706 202.683 474.705 202.783 474.703 202.955L458.859 203.834L473.05 383.027H490.203L488.502 323.576C499.079 351.973 514.236 380.911 514.236 380.911L528.812 373.697Z" fill="#B78876"/>
<path d="M489.203 344.884C489.218 344.34 488.995 324.965 488.995 324.965C488.781 326.124 482.419 308.142 482.573 307.049C482.652 306.483 489.203 344.884 489.203 344.884Z" fill="#A36957"/>
<path d="M481.849 298.535C481.81 298.534 481.773 298.92 481.739 299.621C481.702 300.321 481.694 301.337 481.762 302.592C481.786 303.22 481.852 303.906 481.933 304.641C482.027 305.374 482.127 306.16 482.297 306.975C482.608 308.61 483.088 310.38 483.699 312.195C484.945 315.819 486.319 318.99 487.295 321.291C487.758 322.34 488.155 323.242 488.489 324C488.782 324.635 488.961 324.98 488.998 324.965C489.035 324.95 488.925 324.578 488.695 323.917C488.465 323.256 488.115 322.307 487.669 321.14C486.789 318.801 485.474 315.606 484.24 312.014C483.635 310.216 483.147 308.477 482.813 306.872C482.632 306.072 482.516 305.301 482.403 304.58C482.303 303.857 482.215 303.183 482.166 302.563C482.048 301.326 481.994 300.318 481.963 299.621C481.926 298.922 481.888 298.535 481.849 298.535Z" fill="#A36957"/>
<path d="M472.727 383.912L472.72 382.301L490.29 381.535L490.338 388.18L489.254 388.253C484.431 388.535 464.712 389.349 461.485 388.381C457.884 387.302 472.727 383.912 472.727 383.912Z" fill="#455A64"/>
<path d="M490.584 387.78C490.584 387.787 490.481 387.799 490.284 387.814C490.025 387.831 489.741 387.849 489.421 387.869C488.558 387.909 487.497 387.959 486.244 388.017C483.561 388.123 479.852 388.221 475.755 388.239C471.656 388.256 467.946 388.191 465.263 388.109C464.01 388.062 462.949 388.021 462.085 387.988C461.765 387.97 461.481 387.955 461.222 387.94C461.025 387.927 460.921 387.916 460.922 387.909C460.922 387.902 461.026 387.898 461.224 387.897C461.484 387.899 461.768 387.902 462.089 387.905C462.953 387.919 464.014 387.937 465.267 387.958C467.951 388.002 471.659 388.044 475.755 388.026C479.85 388.008 483.557 387.934 486.24 387.866C487.493 387.834 488.555 387.807 489.418 387.785C489.739 387.779 490.023 387.774 490.283 387.77C490.48 387.77 490.584 387.773 490.584 387.78Z" fill="#263238"/>
<path d="M467.039 388.345C466.974 388.353 466.922 387.595 466.44 386.831C465.971 386.058 465.316 385.673 465.353 385.619C465.365 385.566 466.116 385.893 466.621 386.72C467.135 387.541 467.092 388.358 467.039 388.345Z" fill="#263238"/>
<path d="M472.187 385.708C472.138 385.739 471.89 385.44 471.634 385.039C471.377 384.638 471.21 384.288 471.259 384.256C471.308 384.224 471.555 384.524 471.812 384.925C472.067 385.326 472.236 385.677 472.187 385.708Z" fill="#263238"/>
<path d="M473.599 384.955C473.56 384.999 473.284 384.816 472.981 384.546C472.679 384.276 472.466 384.023 472.504 383.979C472.543 383.935 472.819 384.118 473.122 384.388C473.425 384.658 473.638 384.912 473.599 384.955Z" fill="#263238"/>
<path d="M474.483 383.304C474.484 383.363 474.076 383.416 473.571 383.424C473.067 383.431 472.657 383.39 472.656 383.332C472.655 383.273 473.063 383.22 473.568 383.212C474.073 383.205 474.482 383.246 474.483 383.304Z" fill="#263238"/>
<path d="M474.787 382.138C474.807 382.19 474.363 382.392 473.77 382.438C473.178 382.487 472.707 382.356 472.719 382.302C472.729 382.242 473.191 382.274 473.754 382.227C474.316 382.184 474.768 382.08 474.787 382.138Z" fill="#263238"/>
<path d="M471.586 384.185C471.588 384.209 471.157 384.263 470.463 384.182C470.117 384.142 469.707 384.061 469.266 383.923C469.047 383.846 468.818 383.788 468.581 383.643C468.47 383.569 468.346 383.465 468.302 383.295C468.255 383.127 468.344 382.937 468.471 382.845C469.543 382.285 470.62 382.885 471.021 383.438C471.241 383.72 471.343 383.996 471.39 384.186C471.436 384.378 471.433 384.488 471.42 384.489C471.38 384.504 471.342 384.047 470.905 383.533C470.689 383.281 470.363 383.036 469.943 382.913C469.546 382.797 468.981 382.767 468.604 383.009C468.426 383.142 468.496 383.351 468.695 383.469C468.88 383.588 469.12 383.659 469.327 383.736C469.753 383.881 470.149 383.974 470.485 384.033C471.158 384.151 471.586 384.151 471.586 384.185Z" fill="#263238"/>
<path d="M471.298 384.244C471.282 384.256 471.115 383.97 471.166 383.465C471.192 383.217 471.282 382.922 471.47 382.643C471.667 382.393 471.921 382.048 472.403 382.067C472.664 382.1 472.792 382.395 472.751 382.584C472.731 382.781 472.644 382.95 472.562 383.087C472.396 383.368 472.208 383.596 472.034 383.769C471.683 384.114 471.405 384.247 471.393 384.226C471.373 384.199 471.616 384.024 471.924 383.667C472.077 383.489 472.244 383.263 472.392 382.991C472.545 382.753 472.649 382.326 472.367 382.276C472.086 382.25 471.8 382.531 471.629 382.756C471.453 383 471.356 383.262 471.314 383.488C471.23 383.944 471.336 384.236 471.298 384.244Z" fill="#263238"/>
<path d="M490.213 382.996C490.209 383.035 489.711 382.95 488.922 383.046C488.14 383.136 487.053 383.461 486.109 384.218C485.166 384.977 484.613 385.968 484.356 386.713C484.092 387.463 484.068 387.967 484.028 387.962C484.015 387.961 484.008 387.836 484.026 387.609C484.043 387.383 484.096 387.056 484.213 386.666C484.439 385.889 484.992 384.844 485.976 384.053C486.96 383.264 488.099 382.951 488.906 382.898C489.313 382.868 489.643 382.887 489.867 382.919C490.093 382.949 490.215 382.983 490.213 382.996Z" fill="#263238"/>
<path d="M481.797 386.385C481.804 386.44 480.663 386.622 479.243 386.628C477.822 386.638 476.682 386.468 476.688 386.413C476.694 386.352 477.835 386.426 479.243 386.416C480.65 386.41 481.79 386.324 481.797 386.385Z" fill="#263238"/>
<path d="M485.224 386.35C485.267 386.393 485.131 386.592 485.016 386.855C484.897 387.116 484.838 387.35 484.777 387.346C484.72 387.346 484.685 387.07 484.821 386.768C484.956 386.465 485.186 386.308 485.224 386.35Z" fill="#263238"/>
<path d="M486.505 384.739C486.547 384.78 486.435 384.962 486.255 385.146C486.075 385.33 485.895 385.446 485.853 385.405C485.811 385.364 485.923 385.182 486.104 384.998C486.283 384.814 486.463 384.698 486.505 384.739Z" fill="#263238"/>
<path d="M488.348 383.997C488.336 384.056 488.104 384.055 487.847 384.147C487.588 384.232 487.406 384.376 487.36 384.336C487.313 384.304 487.459 384.055 487.778 383.947C488.097 383.836 488.365 383.943 488.348 383.997Z" fill="#263238"/>
<path d="M489.668 383.645C489.689 383.7 489.589 383.79 489.444 383.846C489.299 383.903 489.164 383.905 489.143 383.85C489.122 383.796 489.222 383.705 489.367 383.649C489.512 383.593 489.646 383.591 489.668 383.645Z" fill="#263238"/>
<path d="M513.893 382.362L513.226 380.895L528.941 373L531.707 379.042L530.748 379.552C526.464 381.785 508.808 390.604 505.468 391.044C501.742 391.534 513.893 382.362 513.893 382.362Z" fill="#455A64"/>
<path d="M531.765 378.575C531.768 378.582 531.679 378.634 531.505 378.729C531.276 378.85 531.024 378.983 530.74 379.133C529.969 379.523 529.021 380.003 527.903 380.57C525.499 381.766 522.155 383.374 518.425 385.069C514.693 386.764 511.282 388.224 508.8 389.248C507.638 389.718 506.653 390.116 505.852 390.44C505.553 390.555 505.287 390.657 505.045 390.75C504.86 390.819 504.761 390.852 504.758 390.845C504.755 390.838 504.848 390.792 505.029 390.711C505.267 390.607 505.527 390.493 505.821 390.364C506.615 390.023 507.591 389.605 508.742 389.111C511.209 388.052 514.608 386.571 518.338 384.877C522.066 383.183 525.418 381.597 527.838 380.436C528.968 379.894 529.925 379.434 530.704 379.06C530.994 378.923 531.251 378.802 531.486 378.692C531.665 378.609 531.761 378.568 531.765 378.575Z" fill="#263238"/>
<path d="M510.515 388.739C510.46 388.773 510.102 388.103 509.349 387.603C508.605 387.09 507.848 387.007 507.859 386.942C507.849 386.889 508.668 386.879 509.468 387.427C510.273 387.966 510.568 388.729 510.515 388.739Z" fill="#263238"/>
<path d="M514.132 384.225C514.1 384.274 513.751 384.102 513.353 383.842C512.955 383.581 512.658 383.33 512.69 383.282C512.722 383.233 513.071 383.405 513.469 383.665C513.867 383.925 514.164 384.176 514.132 384.225Z" fill="#263238"/>
<path d="M515.11 382.956C515.092 383.012 514.765 382.958 514.379 382.836C513.993 382.714 513.694 382.57 513.712 382.514C513.73 382.458 514.057 382.512 514.443 382.634C514.829 382.756 515.127 382.9 515.11 382.956Z" fill="#263238"/>
<path d="M515.249 381.086C515.274 381.139 514.923 381.355 514.467 381.569C514.01 381.782 513.619 381.912 513.595 381.859C513.57 381.806 513.921 381.59 514.378 381.377C514.833 381.163 515.224 381.033 515.249 381.086Z" fill="#263238"/>
<path d="M515.047 379.899C515.086 379.938 514.764 380.305 514.242 380.589C513.721 380.876 513.239 380.95 513.227 380.895C513.211 380.836 513.646 380.676 514.14 380.403C514.637 380.134 515.006 379.854 515.047 379.899Z" fill="#263238"/>
<path d="M512.963 383.079C512.974 383.1 512.603 383.326 511.937 383.536C511.605 383.641 511.198 383.735 510.739 383.79C510.507 383.809 510.275 383.851 509.999 383.816C509.867 383.794 509.712 383.75 509.602 383.613C509.49 383.479 509.494 383.27 509.572 383.134C510.32 382.184 511.549 382.29 512.141 382.631C512.458 382.798 512.663 383.008 512.784 383.162C512.904 383.318 512.946 383.42 512.936 383.426C512.906 383.456 512.684 383.055 512.074 382.765C511.774 382.623 511.376 382.533 510.943 382.593C510.533 382.65 510.006 382.854 509.761 383.229C509.653 383.423 509.803 383.585 510.032 383.611C510.25 383.643 510.497 383.611 510.718 383.596C511.166 383.554 511.565 383.477 511.896 383.392C512.558 383.223 512.949 383.047 512.963 383.079Z" fill="#263238"/>
<path d="M512.722 383.252C512.713 383.27 512.443 383.077 512.282 382.595C512.204 382.358 512.166 382.052 512.222 381.721C512.3 381.412 512.39 380.994 512.837 380.813C513.088 380.736 513.674 381.24 513.714 381.43C513.777 381.618 513.418 381.521 513.399 381.679C513.363 382.004 513.285 382.288 513.197 382.517C513.018 382.976 512.819 383.211 512.799 383.197C512.77 383.18 512.92 382.921 513.055 382.469C513.122 382.243 513.181 381.969 513.205 381.661C513.247 381.381 513.167 380.949 512.89 381.019C512.623 381.11 512.477 381.484 512.413 381.759C512.353 382.053 512.371 382.332 512.425 382.556C512.537 383.007 512.753 383.229 512.722 383.252Z" fill="#263238"/>
<path d="M529.466 374.367C529.479 374.405 528.99 374.53 528.309 374.941C527.632 375.343 526.773 376.085 526.222 377.162C525.672 378.24 525.575 379.371 525.646 380.155C525.712 380.948 525.897 381.417 525.859 381.429C525.847 381.434 525.789 381.322 525.713 381.108C525.636 380.895 525.551 380.575 525.497 380.171C525.385 379.37 525.46 378.19 526.034 377.066C526.609 375.943 527.52 375.191 528.235 374.811C528.594 374.617 528.903 374.499 529.121 374.436C529.338 374.374 529.462 374.355 529.466 374.367Z" fill="#263238"/>
<path d="M523.181 380.906C523.21 380.953 522.245 381.586 520.952 382.173C519.66 382.764 518.549 383.076 518.532 383.024C518.512 382.966 519.584 382.566 520.864 381.981C522.145 381.399 523.15 380.852 523.181 380.906Z" fill="#263238"/>
<path d="M526.289 379.466C526.345 379.487 526.304 379.725 526.306 380.012C526.304 380.299 526.346 380.536 526.289 380.558C526.237 380.581 526.093 380.344 526.094 380.012C526.093 379.68 526.237 379.443 526.289 379.466Z" fill="#263238"/>
<path d="M526.796 377.47C526.851 377.49 526.823 377.702 526.734 377.944C526.645 378.186 526.528 378.365 526.474 378.345C526.419 378.325 526.447 378.113 526.536 377.871C526.625 377.63 526.742 377.45 526.796 377.47Z" fill="#263238"/>
<path d="M528.177 376.04C528.19 376.099 527.978 376.193 527.781 376.381C527.58 376.565 527.472 376.77 527.414 376.753C527.358 376.743 527.389 376.456 527.636 376.226C527.882 375.995 528.171 375.983 528.177 376.04Z" fill="#263238"/>
<path d="M529.236 375.181C529.278 375.222 529.223 375.345 529.115 375.456C529.006 375.567 528.884 375.624 528.842 375.583C528.8 375.542 528.855 375.419 528.963 375.308C529.072 375.197 529.194 375.14 529.236 375.181Z" fill="#263238"/>
<path d="M509.563 171.637L506.637 135.94L521.665 136.208C521.665 136.208 522.361 130.945 520.147 119.399C518.789 112.319 514.074 107.977 508.786 105.397L508.787 105.302L508.328 105.182C501.603 102.034 494.563 101.59 494.563 101.59L476.116 101.803C476.116 101.803 462.024 100.045 454.224 110.091C451.219 113.961 441.922 140.446 441.922 140.446L464.064 151.109L461.956 136.422C461.956 136.422 462.375 147.071 463.734 150.445C464.491 152.325 466.683 158.161 466.683 158.161L466.397 175.776L509.563 171.637Z" fill="#BAE8E8"/>
<path d="M499.386 130.759L496.648 142.425H522.479L520.78 122.867L499.386 130.759Z" fill="#BAE8E8"/>
<path d="M522.482 142.425C522.486 142.348 521.18 142.211 519.063 142.087C516.946 141.963 514.017 141.858 510.779 141.873C507.541 141.889 504.611 142.029 502.496 142.197C500.381 142.364 499.08 142.543 499.086 142.618C499.092 142.7 500.403 142.663 502.518 142.599C504.633 142.534 507.554 142.458 510.783 142.442C514.01 142.428 516.933 142.468 519.05 142.489C521.166 142.511 522.478 142.505 522.482 142.425Z" fill="#263238"/>
<path d="M498.272 122.77C498.193 122.773 498.166 123.907 498.186 125.737C498.206 127.568 498.272 130.094 498.38 132.884C498.488 135.674 498.618 138.199 498.741 140.026C498.863 141.852 498.979 142.98 499.057 142.977C499.136 142.974 499.163 141.84 499.143 140.01C499.124 138.18 499.057 135.652 498.949 132.862C498.841 130.072 498.711 127.548 498.588 125.721C498.466 123.896 498.351 122.767 498.272 122.77Z" fill="#263238"/>
<g opacity="0.3">
<path d="M474.766 132.875C474.766 132.875 480.508 175.443 496.647 174.316C496.647 174.316 503.913 174.23 506.25 169.4V167.499L474.766 132.875Z" fill="black"/>
</g>
<g opacity="0.3">
<path d="M498.269 125.277L495.18 146.145L497.18 149.807L500.473 142.647L499.079 142.614L498.269 125.277Z" fill="black"/>
</g>
<path d="M466.683 158.163C466.649 158.175 466.495 157.819 466.247 157.166C465.996 156.514 465.663 155.56 465.277 154.372C464.506 151.997 463.553 148.671 462.807 144.927C462.065 141.18 461.701 137.734 461.583 135.236C461.523 133.987 461.504 132.975 461.523 132.276C461.537 131.577 461.561 131.191 461.597 131.191C461.68 131.19 461.736 132.732 461.95 135.211C462.162 137.69 462.58 141.103 463.318 144.826C464.059 148.547 464.951 151.87 465.63 154.266C465.947 155.377 466.218 156.324 466.44 157.104C466.628 157.774 466.717 158.151 466.683 158.163Z" fill="#263238"/>
<path d="M473.208 170.395C473.07 170.437 472.671 169.518 472.316 168.344C471.961 167.169 471.784 166.184 471.922 166.142C472.06 166.1 472.459 167.019 472.814 168.193C473.169 169.367 473.346 170.353 473.208 170.395Z" fill="#263238"/>
<path d="M475.435 170.233C475.302 170.267 474.866 168.889 474.845 167.121C474.815 165.353 475.21 163.963 475.343 163.993C475.491 164.02 475.335 165.407 475.365 167.113C475.385 168.819 475.583 170.202 475.435 170.233Z" fill="#263238"/>
<path d="M464.511 151.598C464.447 151.727 459.294 149.282 453.003 146.138C446.71 142.993 441.662 140.341 441.727 140.212C441.791 140.083 446.943 142.528 453.236 145.672C459.526 148.816 464.575 151.469 464.511 151.598Z" fill="#263238"/>
<path d="M473.592 105.253C473.707 100.194 473.736 94.8661 473.736 94.8661C473.736 94.8661 467.247 93.6161 466.116 85.0781C465.038 76.9361 468.054 57.8311 468.054 57.8311C477.532 54.2481 487.382 57.4961 493.876 65.1761L492.264 106.25C492.077 111.018 487.828 114.655 482.724 114.416C477.568 114.174 473.482 110.073 473.592 105.253Z" fill="#B78876"/>
<path d="M467.564 73.0993C467.529 73.6743 467.987 74.1783 468.587 74.2263C469.186 74.2743 469.701 73.8473 469.736 73.2723C469.771 72.6973 469.313 72.1923 468.714 72.1443C468.114 72.0963 467.599 72.5243 467.564 73.0993Z" fill="#263238"/>
<path d="M467.157 71.6669C467.289 71.8129 468.131 71.2229 469.304 71.2559C470.477 71.2719 471.322 71.8979 471.453 71.7579C471.517 71.6959 471.386 71.4359 471.018 71.1529C470.656 70.8719 470.033 70.5909 469.302 70.5749C468.571 70.5599 467.949 70.8129 467.589 71.0799C467.221 71.3479 467.092 71.6019 467.157 71.6669Z" fill="#263238"/>
<path d="M479.463 73.8406C479.428 74.4156 479.886 74.9206 480.486 74.9686C481.085 75.0166 481.6 74.5896 481.635 74.0146C481.67 73.4396 481.212 72.9346 480.613 72.8866C480.013 72.8376 479.498 73.2656 479.463 73.8406Z" fill="#263238"/>
<path d="M479.383 72.409C479.515 72.555 480.358 71.965 481.53 71.998C482.702 72.015 483.548 72.641 483.679 72.5C483.743 72.438 483.613 72.178 483.244 71.895C482.882 71.614 482.259 71.333 481.528 71.317C480.797 71.302 480.175 71.555 479.815 71.822C479.448 72.09 479.319 72.344 479.383 72.409Z" fill="#263238"/>
<path d="M474.905 81.0021C474.912 80.9351 474.186 80.7911 473.008 80.6091C472.709 80.5701 472.427 80.5041 472.382 80.2981C472.317 80.0801 472.451 79.7601 472.605 79.4151C472.905 78.6971 473.22 77.9451 473.55 77.1561C474.864 73.9391 475.824 71.2911 475.694 71.2391C475.564 71.1871 474.393 73.7521 473.079 76.9691C472.762 77.7621 472.459 78.5191 472.171 79.2421C472.049 79.5801 471.844 79.9611 471.985 80.4141C472.06 80.6401 472.276 80.8081 472.466 80.8651C472.657 80.9291 472.825 80.9361 472.973 80.9491C474.161 81.0451 474.899 81.0691 474.905 81.0021Z" fill="#263238"/>
<path d="M473.734 94.8651C473.734 94.8651 479.445 95.3811 485.199 92.1211C485.199 92.1211 482.286 97.8911 473.796 96.8751L473.734 94.8651Z" fill="#A36957"/>
<path d="M483.146 69.0239C482.905 69.3909 482.013 69.2279 481.013 69.0479C480.017 68.8469 479.127 68.6699 479.038 68.2399C478.939 67.8279 479.972 67.2569 481.306 67.5129C482.64 67.7669 483.39 68.6769 483.146 69.0239Z" fill="#263238"/>
<path d="M471.476 67.3C471.385 67.728 470.43 67.884 469.328 67.94C468.225 67.985 467.259 67.917 467.13 67.5C466.998 67.096 467.93 66.438 469.256 66.38C470.581 66.316 471.57 66.885 471.476 67.3Z" fill="#263238"/>
<path d="M474.922 83.8111C474.675 83.7421 474.398 83.8831 474.274 84.1081C474.126 84.3751 474.194 84.7431 474.428 84.9401C474.661 85.1371 475.035 85.1421 475.274 84.9511C475.513 84.7611 475.591 84.3951 475.451 84.1241C475.311 83.8531 474.967 83.7051 474.673 83.7891" fill="#A36957"/>
<path d="M475.197 83.9244C475.25 83.8774 475.009 83.5894 474.497 83.7014C474.26 83.7534 473.95 83.9664 473.856 84.3304C473.762 84.6724 473.847 85.1154 474.209 85.3934C474.584 85.6574 475.036 85.6034 475.334 85.4004C475.654 85.1904 475.744 84.8064 475.694 84.5664C475.591 84.0394 475.201 83.9554 475.19 84.0284C475.146 84.0944 475.326 84.2774 475.291 84.5894C475.274 84.7424 475.201 84.8844 475.053 84.9564C474.908 85.0354 474.677 85.0354 474.546 84.9344C474.409 84.8364 474.338 84.6184 474.366 84.4504C474.387 84.2824 474.499 84.1574 474.635 84.0804C474.913 83.9224 475.16 83.9964 475.197 83.9244Z" fill="#263238"/>
<path d="M489.943 75.2074C488.931 77.5514 486.463 79.3574 486.805 81.8874C487.026 83.5204 488.074 85.0434 487.87 86.6794C487.614 88.7334 485.48 90.1574 485.178 92.2054C484.808 94.7174 487.251 96.6694 488.227 99.0134C489.648 102.426 487.83 106.265 487.787 109.962C487.722 115.625 492.537 120.915 498.181 121.38C500.464 121.568 503.036 120.879 504.219 118.918C505.196 117.3 505 115.244 505.586 113.447C506.458 110.771 509.009 108.812 509.547 106.049C510.527 101.012 504.44 96.8444 504.84 91.7284C505.011 89.5424 506.361 87.6354 506.934 85.5194C507.686 82.7474 506.997 79.6254 505.148 77.4274C503.646 75.6404 501.466 74.4654 500.187 72.5134C498.736 70.2994 498.686 67.4924 498.139 64.9024C496.806 58.5914 492.066 53.1094 486.014 50.8774C479.962 48.6454 472.798 49.7374 467.686 53.6704C467.686 53.6704 466.231 60.2614 472.997 61.3634C479.762 62.4654 482.898 61.1934 483.661 63.9054C483.661 63.9054 482.89 67.0724 485.687 70.0984C488.485 73.1264 491.114 72.4934 489.943 75.2074Z" fill="#263238"/>
<path d="M500.737 120.918C500.734 120.936 500.523 120.913 500.12 120.854C499.718 120.791 499.128 120.658 498.399 120.39C496.955 119.862 494.908 118.712 493.164 116.515C492.298 115.426 491.487 114.106 490.939 112.554C490.379 111.011 490.059 109.262 490.03 107.42C489.987 105.577 490.248 103.644 490.751 101.71C491.002 100.742 491.329 99.776 491.708 98.817C492.082 97.854 492.542 96.926 492.806 95.944C493.091 94.965 493.052 93.965 492.796 93.011C492.535 92.057 492.091 91.16 491.659 90.273C491.224 89.387 490.78 88.503 490.494 87.563C490.203 86.631 490.094 85.626 490.284 84.689C490.683 82.805 491.827 81.411 492.502 79.98C493.216 78.563 493.44 77.065 493.407 75.721C493.286 72.997 492.125 70.983 491.177 69.822C490.189 68.66 489.44 68.217 489.478 68.168C489.478 68.168 490.271 68.543 491.331 69.69C492.347 70.836 493.6 72.878 493.775 75.705C493.835 77.098 493.621 78.676 492.891 80.169C492.201 81.652 491.097 83.056 490.756 84.78C490.405 86.517 491.227 88.306 492.118 90.047C492.554 90.935 493.016 91.853 493.298 92.874C493.578 93.888 493.619 95.034 493.311 96.078C493.027 97.127 492.557 98.067 492.192 99.007C491.818 99.947 491.496 100.892 491.247 101.839C490.748 103.731 490.484 105.616 490.513 107.411C490.525 111.016 491.762 114.167 493.457 116.285C495.118 118.453 497.081 119.623 498.477 120.2C499.888 120.773 500.749 120.859 500.737 120.918Z" fill="#455A64"/>
<path d="M499.745 70.459C499.748 70.492 499.221 70.587 498.255 70.681C497.293 70.76 495.872 70.872 494.136 70.573C492.441 70.263 490.297 69.431 488.939 67.42C488.272 66.411 488.008 65.19 487.574 64.063C487.166 62.923 486.377 61.936 485.296 61.252C483.108 59.865 480.534 59.695 478.283 59.421C476.02 59.166 473.895 58.686 472.454 57.606C471.003 56.573 470.259 55.233 470.068 54.267C469.959 53.783 469.968 53.395 469.99 53.139C470.026 52.882 470.054 52.751 470.072 52.754C470.136 52.755 470.003 53.304 470.265 54.217C470.507 55.121 471.258 56.357 472.665 57.304C474.052 58.287 476.085 58.716 478.339 58.945C480.571 59.197 483.236 59.336 485.579 60.815C486.736 61.537 487.631 62.669 488.05 63.88C488.495 65.07 488.744 66.241 489.342 67.161C490.56 69.022 492.578 69.873 494.206 70.213C495.876 70.55 497.283 70.498 498.242 70.481C499.206 70.447 499.741 70.421 499.745 70.459Z" fill="#455A64"/>
<path d="M497.265 62.3141C497.27 62.3391 496.861 62.4671 496.093 62.4861C495.331 62.5071 494.191 62.3721 492.936 61.7751C492.311 61.4781 491.669 61.0521 491.078 60.4831C490.478 59.9171 489.987 59.1851 489.527 58.4131C488.625 56.8921 487.757 55.0161 485.887 54.2411C484.055 53.4551 482.037 53.6301 480.284 53.7491C478.514 53.9231 476.855 53.9751 475.502 53.7091C474.14 53.4721 473.118 52.9081 472.551 52.3861C472.265 52.1281 472.07 51.8971 471.963 51.7261C471.851 51.5581 471.8 51.4661 471.815 51.4551C471.856 51.4231 472.095 51.7761 472.68 52.2291C473.262 52.6801 474.246 53.1631 475.563 53.3461C476.88 53.5561 478.465 53.4731 480.243 53.2711C482.005 53.1321 484.083 52.9101 486.097 53.7651C487.094 54.1881 487.907 54.9371 488.485 55.7481C489.074 56.5591 489.496 57.4061 489.941 58.1711C490.382 58.9371 490.835 59.6361 491.382 60.1761C491.923 60.7231 492.517 61.1431 493.101 61.4461C494.273 62.0551 495.359 62.2431 496.097 62.2831C496.842 62.3271 497.259 62.2691 497.265 62.3141Z" fill="#455A64"/>
<path d="M503.725 118.763C503.674 118.74 503.992 118.096 504.361 116.865C504.727 115.638 505.091 113.794 505.028 111.505C504.95 109.232 504.403 106.482 502.895 103.869C502.164 102.559 501.052 101.393 500.147 99.9542C499.697 99.2362 499.31 98.4312 499.14 97.5402C498.973 96.6482 499.075 95.7012 499.361 94.8412C499.922 93.1152 500.926 91.6612 501.142 90.0742C501.41 88.4822 500.606 87.0302 499.845 85.7382C499.46 85.0802 499.074 84.4302 498.774 83.7502C498.475 83.0702 498.284 82.3542 498.209 81.6622C498.057 80.2722 498.219 78.9952 498.322 77.8492C498.611 75.5652 498.399 73.6882 497.848 72.5352C497.315 71.3682 496.616 71.0182 496.667 70.9702C496.672 70.9632 496.713 70.9822 496.788 71.0282C496.862 71.0762 496.979 71.1392 497.107 71.2562C497.374 71.4732 497.73 71.8582 498.03 72.4472C498.663 73.6142 498.934 75.5772 498.688 77.8812C498.607 79.0322 498.472 80.2932 498.636 81.6102C498.769 82.9392 499.454 84.1932 500.257 85.4942C500.646 86.1522 501.057 86.8392 501.345 87.6192C501.641 88.3922 501.776 89.2762 501.646 90.1442C501.403 91.8932 500.372 93.3732 499.856 94.9992C499.587 95.8112 499.501 96.6452 499.648 97.4472C499.799 98.2492 500.151 98.9962 500.579 99.6862C501.437 101.068 502.554 102.258 503.309 103.63C504.844 106.345 505.361 109.174 505.394 111.497C505.412 113.836 504.983 115.703 504.553 116.927C504.328 117.538 504.14 118.006 503.977 118.308C503.828 118.614 503.741 118.771 503.725 118.763Z" fill="#455A64"/>
<path d="M462.999 305.09C462.999 305.09 456.264 241.248 455.877 217.657C455.49 194.067 466.483 170.791 466.483 170.791L509.566 168.969C509.566 168.969 518.082 192.905 518.234 202.959C518.53 222.498 513.043 241.792 513.675 257.292L515.115 305.09" fill="#263238"/>
<path d="M516.552 226.603C516.561 226.619 516.317 226.803 515.849 227.136C515.729 227.221 515.598 227.313 515.456 227.413C515.321 227.527 515.19 227.671 515.039 227.816C514.737 228.106 514.384 228.436 514.079 228.891C512.687 230.595 511.673 233.639 510.708 237.436C510.177 239.322 509.639 241.438 508.528 243.51C508.23 244.015 507.962 244.551 507.57 245.022C507.383 245.262 507.213 245.519 507.007 245.75L506.344 246.413C505.445 247.298 504.305 247.965 503.104 248.492C500.692 249.549 497.97 250.051 495.483 251.298C492.98 252.517 491.103 254.88 489.953 257.601C488.74 260.31 488.004 263.155 486.992 265.811C485.998 268.446 484.644 271.012 482.495 272.632C480.363 274.311 477.727 274.695 475.445 274.842C473.125 274.977 470.977 274.91 469.051 275.202C467.132 275.468 465.431 276.076 464.228 277.022C463.022 277.971 462.318 279.159 461.987 280.177C461.644 281.207 461.706 282.076 461.82 282.629C461.931 283.191 462.089 283.459 462.054 283.474C462.054 283.474 461.866 283.222 461.718 282.654C461.568 282.095 461.469 281.195 461.793 280.118C462.107 279.053 462.807 277.807 464.046 276.795C465.29 275.782 467.038 275.135 468.996 274.838C470.958 274.518 473.13 274.564 475.416 274.411C477.676 274.247 480.199 273.851 482.204 272.251C484.234 270.707 485.54 268.239 486.516 265.631C487.511 263.006 488.242 260.157 489.479 257.388C490.64 254.619 492.63 252.106 495.253 250.844C497.839 249.56 500.563 249.074 502.914 248.052C504.086 247.545 505.173 246.915 506.033 246.078L506.67 245.451C506.868 245.232 507.033 244.985 507.214 244.757C507.593 244.31 507.855 243.791 508.148 243.305C509.244 241.305 509.802 239.213 510.354 237.338C511.361 233.561 512.448 230.468 513.92 228.766C514.244 228.313 514.615 227.986 514.935 227.702C515.094 227.561 515.235 227.421 515.377 227.311C515.526 227.217 515.662 227.13 515.789 227.05C516.283 226.74 516.544 226.587 516.552 226.603Z" fill="#FAFAFA"/>
<path d="M516.825 197.059C516.843 197.058 516.862 197.351 516.881 197.914C516.889 198.476 516.822 199.31 516.582 200.357C516.082 202.439 514.561 205.297 511.715 207.883C510.308 209.182 508.61 210.437 506.669 211.568C504.739 212.714 502.609 213.804 500.427 215.037C498.253 216.273 496.011 217.671 494.041 219.527C492.045 221.361 490.55 223.772 489.204 226.324C487.844 228.873 486.64 231.467 485.009 233.713C484.2 234.835 483.286 235.86 482.275 236.737C481.258 237.608 480.149 238.315 479.023 238.903C476.763 240.076 474.461 240.801 472.328 241.469C470.19 242.13 468.197 242.715 466.453 243.446C464.707 244.166 463.195 244.981 461.972 245.846C460.749 246.712 459.819 247.619 459.159 248.44C457.827 250.09 457.547 251.285 457.471 251.245C457.454 251.239 457.55 250.961 457.749 250.434C457.98 249.924 458.338 249.163 458.999 248.315C459.645 247.46 460.574 246.513 461.801 245.61C463.028 244.708 464.551 243.858 466.309 243.107C468.066 242.345 470.071 241.736 472.197 241.058C474.32 240.374 476.595 239.637 478.798 238.479C479.896 237.899 480.969 237.206 481.949 236.361C482.923 235.509 483.805 234.515 484.593 233.416C486.18 231.219 487.374 228.645 488.742 226.08C490.092 223.516 491.631 221.037 493.688 219.156C495.713 217.259 497.995 215.851 500.188 214.619C502.39 213.391 504.522 212.317 506.447 211.196C508.379 210.092 510.06 208.875 511.463 207.611C514.297 205.098 515.83 202.333 516.383 200.305C516.924 198.258 516.745 197.053 516.825 197.059Z" fill="#FAFAFA"/>
<path d="M456.092 221.036C456.084 221.039 456.054 220.974 456.005 220.842C455.962 220.709 455.87 220.516 455.811 220.247C455.689 219.713 455.613 218.869 455.911 217.85C456.467 215.814 458.679 213.28 462.244 212.011C464.017 211.402 466.029 211.034 468.126 210.485C470.198 209.927 472.456 209.145 474.142 207.412C474.979 206.557 475.687 205.539 476.276 204.42C476.849 203.291 477.323 202.079 477.769 200.828C478.666 198.334 479.418 195.624 480.94 193.16C482.452 190.677 484.914 188.952 487.463 188.088C490.005 187.154 492.569 186.74 494.948 186.191C497.334 185.672 499.564 185 501.457 183.975C503.323 182.915 504.809 181.504 505.862 180.008C508.019 177.009 508.584 173.937 508.661 171.907C508.708 169.844 508.38 168.721 508.448 168.711C508.448 168.711 508.847 169.815 508.863 171.911C508.847 173.972 508.333 177.118 506.162 180.221C505.101 181.768 503.589 183.239 501.668 184.352C499.727 185.425 497.451 186.124 495.056 186.659C492.665 187.223 490.117 187.648 487.642 188.566C485.152 189.423 482.839 191.056 481.382 193.437C479.913 195.81 479.158 198.49 478.251 201C477.798 202.26 477.313 203.492 476.718 204.651C476.107 205.802 475.364 206.862 474.481 207.754C472.69 209.57 470.331 210.358 468.236 210.904C466.11 211.441 464.109 211.785 462.361 212.361C458.893 213.545 456.693 215.972 456.106 217.91C455.79 218.882 455.829 219.697 455.915 220.227C456.026 220.753 456.115 221.028 456.092 221.036Z" fill="#FAFAFA"/>
<path d="M513.112 275.02C513.13 275.018 513.153 275.233 513.181 275.648C513.205 276.061 513.172 276.68 512.997 277.453C512.644 278.993 511.454 281.101 509.217 282.856C508.116 283.744 506.783 284.559 505.252 285.211C503.725 285.865 502.037 286.383 500.274 286.933C498.512 287.483 496.663 288.058 494.866 288.908C493.055 289.737 491.384 290.95 489.944 292.498C488.485 294.026 487.226 295.695 485.83 297.169C484.44 298.652 482.86 299.873 481.221 300.775C477.93 302.593 474.518 303.216 471.711 303.248C468.882 303.279 466.638 302.685 465.165 302.16C464.422 301.901 463.87 301.642 463.504 301.448C463.134 301.264 462.945 301.159 462.953 301.143C462.961 301.127 463.166 301.2 463.547 301.352C463.924 301.514 464.485 301.741 465.229 301.968C466.705 302.428 468.927 302.956 471.703 302.879C474.458 302.801 477.79 302.15 480.985 300.355C482.579 299.461 484.099 298.275 485.456 296.818C486.824 295.366 488.077 293.697 489.565 292.137C491.03 290.559 492.791 289.283 494.645 288.446C496.491 287.582 498.364 287.012 500.131 286.474C501.899 285.937 503.579 285.437 505.083 284.813C506.585 284.194 507.899 283.416 508.988 282.567C511.2 280.889 512.395 278.884 512.8 277.402C513.196 275.903 513.04 275.018 513.112 275.02Z" fill="#FAFAFA"/>
<path d="M508.202 142.465L499.871 142.662C499.324 145.468 497.987 147.388 497.987 147.388C491.021 135.296 485.62 119.096 484.279 112.585C484.474 111.935 484.706 111.215 484.995 110.411C485.328 109.483 485.042 107.725 484.885 106.75C484.651 105.3 484.246 103.35 484.124 102.447C483.753 99.6964 483.31 99.2644 482.35 99.5754C481.045 99.9984 482.885 107.301 481.815 107.46C481.24 107.545 480.537 105.043 480.333 102.99C480.129 100.937 479.201 94.6224 478.522 94.2014C477.527 93.5844 476.66 94.5604 476.911 96.6044C477.165 98.6734 477.486 104.844 476.401 104.927C475.332 105.009 474.435 94.5404 474.435 94.5404C474.435 94.5404 474.604 92.2624 473.348 92.3174C471.082 92.4154 472.853 103.453 473.047 104.499C473.183 105.226 472.005 105.36 471.902 104.57C471.795 103.757 471.249 94.1004 468.942 94.1774C467.171 94.2374 470.313 103.273 469.319 105.368C468.325 107.462 467.634 98.2544 465.944 98.3814C465.315 98.4294 464.85 98.5524 466.006 103.763C466.627 106.564 468.453 111.713 470.048 115.977C472.727 130.427 484.485 176.653 502.918 168.191C513.233 163.456 517.417 142.471 517.417 142.471L508.202 142.465Z" fill="#B78876"/>
<path d="M472.65 105.205C472.65 105.205 472.734 105.22 472.89 105.172C473.031 105.129 473.31 104.953 473.266 104.594C473.242 103.974 473.145 103.069 473.001 101.9C472.894 100.723 472.542 99.311 472.541 97.64C472.527 96.803 472.549 95.903 472.597 94.949C472.628 94.472 472.636 93.977 472.742 93.509C472.82 93.056 473.124 92.538 473.473 92.6L473.511 92.607L473.528 92.606C473.884 92.59 474.162 92.867 474.276 93.291C474.401 93.696 474.432 94.174 474.407 94.63L474.406 94.649L474.407 94.662C474.641 97.22 474.893 100.021 475.476 103.011C475.557 103.385 475.64 103.761 475.756 104.14C475.814 104.329 475.881 104.52 475.964 104.713C476.018 104.812 476.052 104.906 476.134 105.009C476.205 105.096 476.296 105.248 476.552 105.271C476.967 105.24 477.087 104.926 477.181 104.746C477.271 104.539 477.327 104.334 477.368 104.131C477.454 103.724 477.497 103.318 477.529 102.91C477.639 101.279 477.582 99.615 477.462 97.908C477.423 97.045 477.211 96.185 477.358 95.403C477.426 95.018 477.587 94.63 477.85 94.47C477.978 94.392 478.122 94.376 478.28 94.416C478.359 94.439 478.439 94.471 478.518 94.519C478.584 94.582 478.569 94.554 478.628 94.666C478.963 95.382 479.134 96.314 479.322 97.18C479.499 98.065 479.653 98.967 479.794 99.879C479.935 100.791 480.064 101.714 480.173 102.644C480.262 103.573 480.397 104.549 480.634 105.488C480.754 105.961 480.887 106.433 481.085 106.901C481.187 107.136 481.292 107.368 481.497 107.608C481.571 107.71 481.804 107.901 482.096 107.826C482.378 107.732 482.458 107.508 482.504 107.377C482.666 106.802 482.618 106.324 482.61 105.821C482.589 105.325 482.547 104.834 482.506 104.344C482.435 103.502 482.354 102.669 482.326 101.848C482.313 101.439 482.312 101.03 482.356 100.645C482.381 100.457 482.413 100.263 482.478 100.124C482.508 100.053 482.546 100.001 482.574 99.975C482.59 99.959 482.6 99.966 482.613 99.95L482.743 99.913C483.406 99.639 483.627 100.562 483.803 101.306C483.957 102.082 484.054 102.883 484.21 103.672C484.473 105.247 484.81 106.812 484.985 108.317C485.057 109.062 485.111 109.837 484.897 110.469C484.66 111.192 484.426 111.907 484.195 112.614L484.174 112.678L484.189 112.745C485.408 118.122 487.096 122.933 488.663 127.204C490.246 131.471 491.829 135.159 493.226 138.174C494.619 141.193 495.869 143.518 496.732 145.105C497.17 145.857 497.516 146.451 497.773 146.893C498.014 147.296 498.146 147.501 498.159 147.494C498.172 147.486 498.067 147.266 497.852 146.849C497.614 146.398 497.294 145.79 496.888 145.022C496.075 143.412 494.875 141.069 493.528 138.038C492.176 135.01 490.636 131.316 489.089 127.048C487.559 122.782 485.899 117.958 484.714 112.637L484.708 112.768C484.939 112.07 485.173 111.365 485.409 110.652C485.678 109.836 485.599 109.039 485.532 108.259C485.353 106.695 485.026 105.175 484.765 103.593C484.611 102.811 484.516 102.008 484.355 101.188C484.26 100.779 484.172 100.367 483.947 99.95C483.839 99.748 483.671 99.518 483.395 99.394C483.116 99.273 482.83 99.307 482.606 99.362L482.438 99.41C482.363 99.444 482.269 99.484 482.211 99.539C482.083 99.65 482.01 99.777 481.958 99.895C481.853 100.135 481.823 100.356 481.792 100.578C481.742 101.017 481.745 101.444 481.757 101.868C481.786 102.716 481.868 103.555 481.939 104.394C481.98 104.882 482.021 105.368 482.042 105.847C482.059 106.314 482.076 106.83 481.968 107.191C481.943 107.296 481.894 107.276 481.951 107.327L481.953 107.332C481.948 107.298 481.961 107.383 481.959 107.369L481.957 107.359C481.955 107.346 481.957 107.334 481.96 107.324C481.965 107.315 481.987 107.28 481.974 107.278C481.967 107.275 481.943 107.262 481.914 107.223C481.804 107.096 481.694 106.888 481.608 106.681C481.43 106.262 481.299 105.807 481.184 105.354C480.954 104.437 480.825 103.527 480.733 102.582C480.621 101.641 480.49 100.714 480.346 99.796C480.202 98.878 480.045 97.97 479.863 97.074C479.657 96.172 479.524 95.305 479.103 94.404C479.077 94.313 478.899 94.111 478.789 94.052C478.676 93.985 478.551 93.933 478.417 93.895C478.148 93.821 477.819 93.855 477.571 94.012C477.075 94.34 476.922 94.861 476.832 95.313C476.751 95.779 476.763 96.239 476.815 96.683C476.865 97.11 476.906 97.528 476.94 97.951C477.066 99.635 477.129 101.292 477.031 102.876C477.003 103.271 476.962 103.662 476.886 104.031C476.85 104.216 476.799 104.395 476.734 104.549C476.702 104.625 476.662 104.696 476.625 104.736C476.589 104.819 476.557 104.717 476.56 104.852C476.611 104.749 476.562 104.806 476.523 104.72C476.48 104.673 476.444 104.583 476.404 104.513C476.333 104.35 476.271 104.178 476.215 104C476.104 103.645 476.019 103.277 475.939 102.914C475.345 99.977 475.066 97.169 474.809 94.629V94.661C474.831 94.147 474.797 93.656 474.646 93.174C474.57 92.937 474.458 92.695 474.255 92.508C474.056 92.315 473.77 92.229 473.514 92.237L473.569 92.243C473.167 92.172 472.874 92.415 472.707 92.656C472.535 92.904 472.459 93.173 472.4 93.433C472.29 93.958 472.292 94.457 472.266 94.936C472.231 95.898 472.223 96.803 472.251 97.649C472.283 99.355 472.667 100.767 472.803 101.93C472.977 103.092 473.107 103.994 473.163 104.602C473.226 104.891 472.993 105.077 472.871 105.126C472.73 105.184 472.648 105.193 472.65 105.205Z" fill="#A36957"/>
<path d="M407.53 156.235C407.53 156.235 404.763 156.103 401.737 156.899C396.573 158.258 387.658 163.66 387.289 170.335H393.764C393.764 170.335 390.138 178.054 391.204 177.339C393.968 175.485 399.472 169.892 399.472 169.892L407.53 156.235Z" fill="#B78876"/>
<path d="M495.857 40.045C495.714 40.058 495.126 34.704 494.544 28.089C493.962 21.471 493.607 16.098 493.75 16.086C493.893 16.073 494.481 21.426 495.063 28.044C495.645 34.658 496 40.032 495.857 40.045Z" fill="#263238"/>
<path d="M524.265 16.411C524.382 16.494 520.007 22.844 514.495 30.591C508.981 38.341 504.417 44.554 504.299 44.471C504.182 44.388 508.556 38.039 514.07 30.289C519.582 22.542 524.147 16.328 524.265 16.411Z" fill="#263238"/>
<path d="M536.066 45.1896C536.095 45.3306 530.989 46.4986 524.664 47.7986C518.336 49.0986 513.185 50.0386 513.156 49.8976C513.127 49.7566 518.232 48.5886 524.559 47.2886C530.885 45.9896 536.037 45.0496 536.066 45.1896Z" fill="#263238"/>
<path d="M195.951 182.545L160.59 364.344L155.961 388.143L392.024 386.978C402.618 386.926 412.007 377.519 415.416 363.543L457.275 191.906C459.862 181.296 454.185 170.261 446.142 170.27L207.219 170.521C201.944 170.528 197.332 175.45 195.951 182.545Z" fill="#272643"/>
<g opacity="0.5">
<path d="M195.951 182.545L160.59 364.344L155.961 388.143L392.024 386.978C402.618 386.926 412.007 377.519 415.416 363.543L457.275 191.906C459.862 181.296 454.185 170.261 446.142 170.27L207.219 170.521C201.944 170.528 197.332 175.45 195.951 182.545Z" fill="black"/>
</g>
<path d="M369.383 352.025L344.389 150.617C343.365 142.364 336.791 136.208 329.029 136.234L274.223 136.413C270.167 136.426 266.278 138.151 263.396 141.214L237.371 168.879L84.9452 169.674C75.6302 169.723 68.4742 178.536 69.7092 188.439L92.9152 374.592C93.9422 382.833 100.504 388.981 108.255 388.965L373.902 388.44C403.489 389.053 406.313 380.315 406.313 380.315C372.406 387.83 369.386 352.048 369.383 352.025Z" fill="#272643"/>
<path d="M254.837 311.716L245.878 321.338L176.875 259.263L185.835 249.641L254.837 311.716Z" fill="white"/>
<path d="M242.122 247.508L252.025 256.415L189.59 323.472L179.688 314.564L242.122 247.508Z" fill="white"/>
<path d="M407.32 51.785C406.681 51.511 406.222 50.89 406.189 50.149L405.79 40.865C405.764 40.281 406.014 39.719 406.464 39.347C406.914 38.974 407.513 38.835 408.082 38.969C409.574 39.321 411.22 38.996 412.597 38.077C413.865 37.231 414.716 35.985 414.931 34.658C415.147 33.336 414.738 31.873 413.809 30.643C412.814 29.326 411.344 28.439 409.868 28.27C406.857 27.923 403.606 30.23 402.769 33.308C402.499 34.302 401.474 34.89 400.48 34.619C399.469 34.341 398.898 33.323 399.168 32.329C400.482 27.491 405.474 24.007 410.296 24.562C412.796 24.85 415.165 26.246 416.785 28.392C418.327 30.432 418.993 32.934 418.614 35.258C418.232 37.603 416.794 39.761 414.668 41.18C413.132 42.205 411.37 42.771 409.608 42.832L409.918 49.988C409.962 51.018 409.163 51.888 408.133 51.932C407.845 51.945 407.569 51.891 407.32 51.785Z" fill="#272643"/>
<path d="M410.057 55.5789C410.115 56.4199 409.48 57.1489 408.639 57.2059C407.798 57.2639 407.069 56.6289 407.011 55.7879C406.953 54.9469 407.588 54.2179 408.429 54.1599C409.27 54.1019 409.999 54.7379 410.057 55.5789Z" fill="#272643"/>
<path d="M375.183 38.6921C375.195 38.6921 375.226 38.4861 375.273 38.0831C375.32 37.6481 375.386 37.0561 375.469 36.2951C375.514 35.5041 375.716 34.5481 375.953 33.4211C376.085 32.8611 376.153 32.2381 376.358 31.6081C376.553 30.9741 376.76 30.3011 376.978 29.5891C377.946 26.7811 379.439 23.4131 381.951 20.0631C384.445 16.7201 387.952 13.4171 392.453 10.9151C394.67 9.59308 397.205 8.67208 399.863 7.85908C402.562 7.22008 405.423 6.67208 408.412 6.74308C409.907 6.66308 411.414 6.88208 412.95 7.01108C413.717 7.08408 414.472 7.28908 415.243 7.42308C416.014 7.56508 416.789 7.71608 417.544 7.97808C420.631 8.77008 423.63 10.2261 426.488 12.0311C432.225 15.6401 437.056 21.5121 439.706 28.6301C441.035 32.1911 441.671 36.0951 441.666 40.0381C441.745 43.9891 440.98 48.0021 439.574 51.7801L439.123 52.9221L439.064 53.0731L439.125 53.2141C441.633 58.9911 444.093 64.6571 446.476 70.1471L446.897 69.6691C441.733 67.6851 436.725 65.7611 431.921 63.9151L431.736 63.8441L431.591 63.9851C427.436 68.0111 422.473 70.7321 417.449 72.1501C412.409 73.5711 407.333 73.6441 402.716 72.8231C398.089 72.0041 393.923 70.2341 390.449 67.9591C386.965 65.6841 384.171 62.9181 382.017 60.1071C379.879 57.2651 378.471 54.3511 377.407 51.7481C376.471 49.0881 375.897 46.7271 375.619 44.7731C375.501 43.7971 375.396 42.9291 375.305 42.1721C375.285 41.4241 375.269 40.7881 375.255 40.2611C375.239 39.7701 375.226 39.3821 375.216 39.0901C375.204 38.8271 375.193 38.6921 375.183 38.6921C375.174 38.6921 375.166 38.8251 375.159 39.0891C375.155 39.3821 375.15 39.7691 375.144 40.2631C375.143 40.7921 375.141 41.4331 375.141 42.1851C375.218 42.9481 375.306 43.8231 375.406 44.8071C375.652 46.7801 376.198 49.1701 377.115 51.8691C378.159 54.5101 379.558 57.4731 381.7 60.3691C383.858 63.2341 386.671 66.0581 390.192 68.3881C393.703 70.7181 397.924 72.5391 402.621 73.3931C407.307 74.2471 412.468 74.1941 417.601 72.7641C422.719 71.3381 427.783 68.5791 432.027 64.4831L431.696 64.5531C436.498 66.4061 441.501 68.3381 446.664 70.3301L447.419 70.6211L447.086 69.8521C444.705 64.3601 442.249 58.6931 439.744 52.9151L439.746 53.2061L440.207 52.0391C441.645 48.1781 442.424 44.0731 442.343 40.0351C442.346 36.0051 441.69 32.0141 440.328 28.3771C437.613 21.1061 432.67 15.1311 426.818 11.4691C423.903 9.63708 420.844 8.16708 417.701 7.36908C416.932 7.10608 416.143 6.95508 415.359 6.81308C414.575 6.67908 413.806 6.47408 413.026 6.40208C411.465 6.27708 409.932 6.06208 408.414 6.14908C405.376 6.09108 402.47 6.65908 399.734 7.32408C397.038 8.16308 394.471 9.11408 392.229 10.4681C387.678 13.0351 384.148 16.4101 381.653 19.8171C379.139 23.2301 377.666 26.6531 376.729 29.4991C376.519 30.2201 376.32 30.9031 376.134 31.5441C375.937 32.1821 375.878 32.8111 375.756 33.3771C375.539 34.5171 375.357 35.4811 375.334 36.2781C375.279 37.0431 375.236 37.6411 375.204 38.0781C375.179 38.4841 375.172 38.6911 375.183 38.6921Z" fill="#263238"/>
</g>
<defs>
<clipPath id="clip0_834_13358">
<rect width="590" height="391" fill="white"/>
</clipPath>
</defs>
</svg>
